<svg xmlns="http://www.w3.org/2000/svg" xmlns:xlink="http://www.w3.org/1999/xlink" width="1000" zoomAndPan="magnify" viewBox="0 0 750 149.999998" height="200" preserveAspectRatio="xMidYMid meet" version="1.0"><defs><g/></defs><g fill="#ff914d" fill-opacity="1"><g transform="translate(0.00000625, 91.287072)"><g><path d="M 8.5625 -17.078125 L 8.5625 -19.25 C 8.5625 -20.050781 9.0625 -20.78125 10.0625 -21.4375 L 31.875 -35.453125 C 32.039062 -35.554688 32.253906 -35.609375 32.515625 -35.609375 C 32.773438 -35.609375 33.007812 -35.503906 33.21875 -35.296875 C 33.425781 -35.085938 33.53125 -34.828125 33.53125 -34.515625 L 33.53125 -26.109375 C 33.53125 -25.484375 33.390625 -25.050781 33.109375 -24.8125 C 32.835938 -24.570312 32.664062 -24.429688 32.59375 -24.390625 C 32.144531 -24.046875 31.90625 -23.875 31.875 -23.875 L 22.78125 -18.171875 L 31.875 -12.453125 C 32.007812 -12.453125 32.257812 -12.285156 32.625 -11.953125 C 32.988281 -11.628906 33.1875 -11.414062 33.21875 -11.3125 C 33.425781 -10.863281 33.53125 -10.5 33.53125 -10.21875 L 33.53125 -1.8125 C 33.53125 -1.5 33.425781 -1.238281 33.21875 -1.03125 C 33.007812 -0.832031 32.773438 -0.734375 32.515625 -0.734375 C 32.253906 -0.734375 32.039062 -0.78125 31.875 -0.875 L 10.0625 -14.890625 C 9.0625 -15.554688 8.5625 -16.285156 8.5625 -17.078125 Z M 8.5625 -17.078125 "/></g></g></g><g fill="#ff914d" fill-opacity="1"><g transform="translate(44.117242, 91.287072)"><g><path d="M 15.203125 0 L 7.9375 0 C 7.28125 0 6.734375 -0.195312 6.296875 -0.59375 C 5.867188 -0.988281 5.617188 -1.445312 5.546875 -1.96875 L 1.03125 -35.03125 L 1.03125 -35.1875 C 1.03125 -35.5 1.144531 -35.765625 1.375 -35.984375 C 1.601562 -36.210938 1.875 -36.328125 2.1875 -36.328125 L 11.109375 -36.328125 C 11.796875 -36.328125 12.351562 -36.117188 12.78125 -35.703125 C 13.21875 -35.296875 13.472656 -34.78125 13.546875 -34.15625 L 15.203125 -18.265625 L 18.21875 -26.53125 C 18.320312 -26.875 18.570312 -27.207031 18.96875 -27.53125 C 19.363281 -27.863281 19.875 -28.03125 20.5 -28.03125 L 24.03125 -28.03125 C 24.65625 -28.03125 25.164062 -27.863281 25.5625 -27.53125 C 25.957031 -27.207031 26.207031 -26.875 26.3125 -26.53125 L 29.328125 -18.265625 L 30.984375 -34.15625 C 31.054688 -34.78125 31.304688 -35.296875 31.734375 -35.703125 C 32.171875 -36.117188 32.734375 -36.328125 33.421875 -36.328125 L 42.359375 -36.328125 C 42.671875 -36.328125 42.9375 -36.210938 43.15625 -35.984375 C 43.382812 -35.765625 43.5 -35.5 43.5 -35.1875 L 43.5 -35.03125 L 38.984375 -1.96875 C 38.910156 -1.445312 38.65625 -0.988281 38.21875 -0.59375 C 37.789062 -0.195312 37.25 0 36.59375 0 L 29.328125 0 C 28.703125 0 28.191406 -0.15625 27.796875 -0.46875 C 27.398438 -0.78125 27.148438 -1.09375 27.046875 -1.40625 L 22.265625 -12.359375 L 17.5 -1.40625 C 17.394531 -1.09375 17.140625 -0.78125 16.734375 -0.46875 C 16.335938 -0.15625 15.828125 0 15.203125 0 Z M 15.203125 0 "/></g></g></g><g fill="#ff914d" fill-opacity="1"><g transform="translate(88.234478, 91.287072)"><g><path d="M 18.171875 -10.125 L 38.875 -10.125 C 39.257812 -10.125 39.585938 -9.984375 39.859375 -9.703125 C 40.140625 -9.429688 40.28125 -9.101562 40.28125 -8.71875 L 40.28125 -1.40625 C 40.28125 -1.019531 40.140625 -0.6875 39.859375 -0.40625 C 39.585938 -0.132812 39.257812 0 38.875 0 L 6.078125 0 C 5.691406 0 5.359375 -0.132812 5.078125 -0.40625 C 4.804688 -0.6875 4.671875 -1.019531 4.671875 -1.40625 L 4.671875 -34.9375 C 4.671875 -35.3125 4.804688 -35.632812 5.078125 -35.90625 C 5.359375 -36.1875 5.691406 -36.328125 6.078125 -36.328125 L 38.359375 -36.328125 C 38.742188 -36.328125 39.070312 -36.1875 39.34375 -35.90625 C 39.625 -35.632812 39.765625 -35.3125 39.765625 -34.9375 L 39.765625 -27.609375 C 39.765625 -27.234375 39.625 -26.90625 39.34375 -26.625 C 39.070312 -26.351562 38.742188 -26.21875 38.359375 -26.21875 L 18.171875 -26.21875 L 18.171875 -22.9375 L 35.5 -22.9375 C 35.882812 -22.9375 36.210938 -22.796875 36.484375 -22.515625 C 36.765625 -22.242188 36.90625 -21.921875 36.90625 -21.546875 L 36.90625 -14.796875 C 36.90625 -14.410156 36.765625 -14.078125 36.484375 -13.796875 C 36.210938 -13.523438 35.882812 -13.390625 35.5 -13.390625 L 18.171875 -13.390625 Z M 18.171875 -10.125 "/></g></g></g><g fill="#ff914d" fill-opacity="1"><g transform="translate(132.351714, 91.287072)"><g><path d="M 41.84375 -11.421875 C 41.84375 -3.804688 36.960938 0 27.203125 0 L 5.8125 0 C 5.4375 0 5.109375 -0.132812 4.828125 -0.40625 C 4.546875 -0.6875 4.40625 -1.019531 4.40625 -1.40625 L 4.40625 -34.9375 C 4.40625 -35.3125 4.546875 -35.632812 4.828125 -35.90625 C 5.109375 -36.1875 5.4375 -36.328125 5.8125 -36.328125 L 26.6875 -36.328125 C 31.59375 -36.328125 35.210938 -35.4375 37.546875 -33.65625 C 39.890625 -31.875 41.0625 -29.1875 41.0625 -25.59375 L 41.0625 -25.4375 C 41.0625 -23.769531 40.609375 -22.347656 39.703125 -21.171875 C 38.804688 -19.992188 37.875 -19.253906 36.90625 -18.953125 C 38.257812 -18.535156 39.421875 -17.625 40.390625 -16.21875 C 41.359375 -14.820312 41.84375 -13.222656 41.84375 -11.421875 Z M 17.90625 -14.015625 L 17.90625 -8.921875 L 25.4375 -8.921875 C 26.226562 -8.921875 26.820312 -9.1875 27.21875 -9.71875 C 27.625 -10.257812 27.828125 -10.859375 27.828125 -11.515625 L 27.828125 -11.578125 C 27.828125 -12.234375 27.609375 -12.800781 27.171875 -13.28125 C 26.742188 -13.769531 26.164062 -14.015625 25.4375 -14.015625 Z M 26.4375 -23.4375 C 26.800781 -23.9375 26.984375 -24.5 26.984375 -25.125 C 26.984375 -25.75 26.800781 -26.285156 26.4375 -26.734375 C 26.082031 -27.179688 25.554688 -27.40625 24.859375 -27.40625 L 17.90625 -27.40625 L 17.90625 -22.6875 L 24.859375 -22.6875 C 25.554688 -22.6875 26.082031 -22.9375 26.4375 -23.4375 Z M 26.4375 -23.4375 "/></g></g></g><g fill="#ff914d" fill-opacity="1"><g transform="translate(176.46895, 91.287072)"><g/></g></g><g fill="#ff914d" fill-opacity="1"><g transform="translate(220.586185, 91.287072)"><g><path d="M 5.34375 -36.328125 L 21.90625 -36.328125 C 25.707031 -36.328125 29.007812 -35.828125 31.8125 -34.828125 C 34.613281 -33.828125 36.878906 -32.128906 38.609375 -29.734375 C 40.347656 -27.347656 41.21875 -24.375 41.21875 -20.8125 L 41.21875 -15.515625 C 41.21875 -9.984375 39.347656 -5.953125 35.609375 -3.421875 C 32.179688 -1.140625 27.613281 0 21.90625 0 L 5.34375 0 C 4.96875 0 4.640625 -0.132812 4.359375 -0.40625 C 4.078125 -0.6875 3.9375 -1.019531 3.9375 -1.40625 L 3.9375 -34.9375 C 3.9375 -35.3125 4.078125 -35.632812 4.359375 -35.90625 C 4.640625 -36.1875 4.96875 -36.328125 5.34375 -36.328125 Z M 17.4375 -26.21875 L 17.4375 -10.125 L 22.15625 -10.125 C 23.789062 -10.125 25.082031 -10.507812 26.03125 -11.28125 C 26.976562 -12.0625 27.453125 -13.160156 27.453125 -14.578125 L 27.453125 -21.75 C 27.453125 -23.164062 26.976562 -24.265625 26.03125 -25.046875 C 25.082031 -25.828125 23.789062 -26.21875 22.15625 -26.21875 Z M 17.4375 -26.21875 "/></g></g></g><g fill="#ff914d" fill-opacity="1"><g transform="translate(264.703421, 91.287072)"><g><path d="M 18.171875 -10.125 L 38.875 -10.125 C 39.257812 -10.125 39.585938 -9.984375 39.859375 -9.703125 C 40.140625 -9.429688 40.28125 -9.101562 40.28125 -8.71875 L 40.28125 -1.40625 C 40.28125 -1.019531 40.140625 -0.6875 39.859375 -0.40625 C 39.585938 -0.132812 39.257812 0 38.875 0 L 6.078125 0 C 5.691406 0 5.359375 -0.132812 5.078125 -0.40625 C 4.804688 -0.6875 4.671875 -1.019531 4.671875 -1.40625 L 4.671875 -34.9375 C 4.671875 -35.3125 4.804688 -35.632812 5.078125 -35.90625 C 5.359375 -36.1875 5.691406 -36.328125 6.078125 -36.328125 L 38.359375 -36.328125 C 38.742188 -36.328125 39.070312 -36.1875 39.34375 -35.90625 C 39.625 -35.632812 39.765625 -35.3125 39.765625 -34.9375 L 39.765625 -27.609375 C 39.765625 -27.234375 39.625 -26.90625 39.34375 -26.625 C 39.070312 -26.351562 38.742188 -26.21875 38.359375 -26.21875 L 18.171875 -26.21875 L 18.171875 -22.9375 L 35.5 -22.9375 C 35.882812 -22.9375 36.210938 -22.796875 36.484375 -22.515625 C 36.765625 -22.242188 36.90625 -21.921875 36.90625 -21.546875 L 36.90625 -14.796875 C 36.90625 -14.410156 36.765625 -14.078125 36.484375 -13.796875 C 36.210938 -13.523438 35.882812 -13.390625 35.5 -13.390625 L 18.171875 -13.390625 Z M 18.171875 -10.125 "/></g></g></g><g fill="#ff914d" fill-opacity="1"><g transform="translate(308.820657, 91.287072)"><g><path d="M 30.359375 -36.328125 L 41.3125 -36.328125 C 41.625 -36.328125 41.890625 -36.210938 42.109375 -35.984375 C 42.335938 -35.765625 42.453125 -35.550781 42.453125 -35.34375 C 42.453125 -35.132812 42.4375 -34.960938 42.40625 -34.828125 L 30.46875 -1.71875 C 30.082031 -0.570312 29.304688 0 28.140625 0 L 16.03125 0 C 14.894531 0 14.132812 -0.519531 13.75 -1.5625 L 1.71875 -34.828125 C 1.675781 -34.960938 1.65625 -35.132812 1.65625 -35.34375 C 1.65625 -35.550781 1.765625 -35.765625 1.984375 -35.984375 C 2.210938 -36.210938 2.484375 -36.328125 2.796875 -36.328125 L 13.75 -36.328125 C 14.375 -36.328125 14.882812 -36.144531 15.28125 -35.78125 C 15.6875 -35.425781 15.957031 -35.039062 16.09375 -34.625 L 22.0625 -14.734375 L 28.03125 -34.625 C 28.34375 -35.757812 29.117188 -36.328125 30.359375 -36.328125 Z M 30.359375 -36.328125 "/></g></g></g><g fill="#ff914d" fill-opacity="1"><g transform="translate(352.937893, 91.287072)"><g><path d="M 18.171875 -10.125 L 38.875 -10.125 C 39.257812 -10.125 39.585938 -9.984375 39.859375 -9.703125 C 40.140625 -9.429688 40.28125 -9.101562 40.28125 -8.71875 L 40.28125 -1.40625 C 40.28125 -1.019531 40.140625 -0.6875 39.859375 -0.40625 C 39.585938 -0.132812 39.257812 0 38.875 0 L 6.078125 0 C 5.691406 0 5.359375 -0.132812 5.078125 -0.40625 C 4.804688 -0.6875 4.671875 -1.019531 4.671875 -1.40625 L 4.671875 -34.9375 C 4.671875 -35.3125 4.804688 -35.632812 5.078125 -35.90625 C 5.359375 -36.1875 5.691406 -36.328125 6.078125 -36.328125 L 38.359375 -36.328125 C 38.742188 -36.328125 39.070312 -36.1875 39.34375 -35.90625 C 39.625 -35.632812 39.765625 -35.3125 39.765625 -34.9375 L 39.765625 -27.609375 C 39.765625 -27.234375 39.625 -26.90625 39.34375 -26.625 C 39.070312 -26.351562 38.742188 -26.21875 38.359375 -26.21875 L 18.171875 -26.21875 L 18.171875 -22.9375 L 35.5 -22.9375 C 35.882812 -22.9375 36.210938 -22.796875 36.484375 -22.515625 C 36.765625 -22.242188 36.90625 -21.921875 36.90625 -21.546875 L 36.90625 -14.796875 C 36.90625 -14.410156 36.765625 -14.078125 36.484375 -13.796875 C 36.210938 -13.523438 35.882812 -13.390625 35.5 -13.390625 L 18.171875 -13.390625 Z M 18.171875 -10.125 "/></g></g></g><g fill="#ff914d" fill-opacity="1"><g transform="translate(397.055129, 91.287072)"><g><path d="M 21.28125 -10.640625 L 38.984375 -10.640625 C 39.359375 -10.640625 39.6875 -10.5 39.96875 -10.21875 C 40.25 -9.945312 40.390625 -9.617188 40.390625 -9.234375 L 40.390625 -1.40625 C 40.390625 -1.019531 40.25 -0.6875 39.96875 -0.40625 C 39.6875 -0.132812 39.359375 0 38.984375 0 L 8.671875 0 C 8.285156 0 7.953125 -0.132812 7.671875 -0.40625 C 7.398438 -0.6875 7.265625 -1.019531 7.265625 -1.40625 L 7.265625 -34.9375 C 7.265625 -35.3125 7.398438 -35.632812 7.671875 -35.90625 C 7.953125 -36.1875 8.285156 -36.328125 8.671875 -36.328125 L 19.875 -36.328125 C 20.257812 -36.328125 20.585938 -36.1875 20.859375 -35.90625 C 21.140625 -35.632812 21.28125 -35.3125 21.28125 -34.9375 Z M 21.28125 -10.640625 "/></g></g></g><g fill="#ff914d" fill-opacity="1"><g transform="translate(441.172364, 91.287072)"><g><path d="M 41.375 -21.328125 L 41.375 -15 C 41.375 -11.4375 40.503906 -8.457031 38.765625 -6.0625 C 37.035156 -3.675781 34.769531 -1.984375 31.96875 -0.984375 C 29.164062 0.015625 25.859375 0.515625 22.046875 0.515625 C 18.242188 0.515625 14.941406 0.015625 12.140625 -0.984375 C 9.335938 -1.984375 7.070312 -3.675781 5.34375 -6.0625 C 3.613281 -8.457031 2.75 -11.472656 2.75 -15.109375 L 2.75 -21.234375 C 2.75 -26.453125 4.539062 -30.359375 8.125 -32.953125 C 11.707031 -35.554688 16.351562 -36.859375 22.0625 -36.859375 C 27.769531 -36.859375 32.414062 -35.554688 36 -32.953125 C 39.582031 -30.359375 41.375 -26.484375 41.375 -21.328125 Z M 16.765625 -22.3125 L 16.765625 -14.015625 C 16.765625 -12.597656 17.238281 -11.507812 18.1875 -10.75 C 19.144531 -9.988281 20.4375 -9.609375 22.0625 -9.609375 C 23.6875 -9.609375 24.972656 -9.992188 25.921875 -10.765625 C 26.878906 -11.546875 27.359375 -12.644531 27.359375 -14.0625 L 27.359375 -22.265625 C 27.359375 -23.679688 26.878906 -24.78125 25.921875 -25.5625 C 24.972656 -26.34375 23.6875 -26.734375 22.0625 -26.734375 C 20.4375 -26.734375 19.144531 -26.351562 18.1875 -25.59375 C 17.238281 -24.832031 16.765625 -23.738281 16.765625 -22.3125 Z M 16.765625 -22.3125 "/></g></g></g><g fill="#ff914d" fill-opacity="1"><g transform="translate(485.289576, 91.287072)"><g><path d="M 7.9375 -36.328125 L 27.359375 -36.328125 C 32.265625 -36.328125 36.15625 -35.132812 39.03125 -32.75 C 41.90625 -30.363281 43.34375 -27.300781 43.34375 -23.5625 C 43.34375 -19.820312 42.128906 -16.851562 39.703125 -14.65625 C 37.285156 -12.46875 33.171875 -11.375 27.359375 -11.375 L 20.5 -11.375 L 20.5 -1.40625 C 20.5 -1.019531 20.359375 -0.6875 20.078125 -0.40625 C 19.804688 -0.132812 19.476562 0 19.09375 0 L 7.9375 0 C 7.5625 0 7.234375 -0.132812 6.953125 -0.40625 C 6.679688 -0.6875 6.546875 -1.019531 6.546875 -1.40625 L 6.546875 -34.9375 C 6.546875 -35.3125 6.679688 -35.632812 6.953125 -35.90625 C 7.234375 -36.1875 7.5625 -36.328125 7.9375 -36.328125 Z M 20.5625 -26.6875 L 20.5625 -20.96875 L 27.140625 -20.96875 C 27.941406 -20.96875 28.59375 -21.207031 29.09375 -21.6875 C 29.59375 -22.175781 29.84375 -22.851562 29.84375 -23.71875 C 29.84375 -24.582031 29.597656 -25.289062 29.109375 -25.84375 C 28.628906 -26.40625 27.972656 -26.6875 27.140625 -26.6875 Z M 20.5625 -26.6875 "/></g></g></g><g fill="#ff914d" fill-opacity="1"><g transform="translate(529.406837, 91.287072)"><g><path d="M 18.171875 -10.125 L 38.875 -10.125 C 39.257812 -10.125 39.585938 -9.984375 39.859375 -9.703125 C 40.140625 -9.429688 40.28125 -9.101562 40.28125 -8.71875 L 40.28125 -1.40625 C 40.28125 -1.019531 40.140625 -0.6875 39.859375 -0.40625 C 39.585938 -0.132812 39.257812 0 38.875 0 L 6.078125 0 C 5.691406 0 5.359375 -0.132812 5.078125 -0.40625 C 4.804688 -0.6875 4.671875 -1.019531 4.671875 -1.40625 L 4.671875 -34.9375 C 4.671875 -35.3125 4.804688 -35.632812 5.078125 -35.90625 C 5.359375 -36.1875 5.691406 -36.328125 6.078125 -36.328125 L 38.359375 -36.328125 C 38.742188 -36.328125 39.070312 -36.1875 39.34375 -35.90625 C 39.625 -35.632812 39.765625 -35.3125 39.765625 -34.9375 L 39.765625 -27.609375 C 39.765625 -27.234375 39.625 -26.90625 39.34375 -26.625 C 39.070312 -26.351562 38.742188 -26.21875 38.359375 -26.21875 L 18.171875 -26.21875 L 18.171875 -22.9375 L 35.5 -22.9375 C 35.882812 -22.9375 36.210938 -22.796875 36.484375 -22.515625 C 36.765625 -22.242188 36.90625 -21.921875 36.90625 -21.546875 L 36.90625 -14.796875 C 36.90625 -14.410156 36.765625 -14.078125 36.484375 -13.796875 C 36.210938 -13.523438 35.882812 -13.390625 35.5 -13.390625 L 18.171875 -13.390625 Z M 18.171875 -10.125 "/></g></g></g><g fill="#ff914d" fill-opacity="1"><g transform="translate(573.524097, 91.287072)"><g><path d="M 42.671875 -1.609375 C 42.734375 -1.472656 42.765625 -1.28125 42.765625 -1.03125 C 42.765625 -0.789062 42.648438 -0.554688 42.421875 -0.328125 C 42.203125 -0.109375 41.9375 0 41.625 0 L 29.84375 0 C 28.800781 0 28.078125 -0.429688 27.671875 -1.296875 L 23.09375 -11.578125 L 18.734375 -11.578125 L 18.734375 -1.40625 C 18.734375 -1.019531 18.59375 -0.6875 18.3125 -0.40625 C 18.039062 -0.132812 17.71875 0 17.34375 0 L 6.125 0 C 5.738281 0 5.40625 -0.132812 5.125 -0.40625 C 4.851562 -0.6875 4.71875 -1.019531 4.71875 -1.40625 L 4.71875 -34.9375 C 4.71875 -35.3125 4.851562 -35.632812 5.125 -35.90625 C 5.40625 -36.1875 5.738281 -36.328125 6.125 -36.328125 L 26.3125 -36.328125 C 31.050781 -36.328125 34.804688 -35.203125 37.578125 -32.953125 C 40.347656 -30.710938 41.734375 -27.648438 41.734375 -23.765625 C 41.734375 -19.066406 39.914062 -15.660156 36.28125 -13.546875 Z M 18.734375 -26.6875 L 18.734375 -21.171875 L 25.21875 -21.171875 C 25.988281 -21.171875 26.578125 -21.421875 26.984375 -21.921875 C 27.398438 -22.429688 27.609375 -23.066406 27.609375 -23.828125 C 27.609375 -24.585938 27.410156 -25.253906 27.015625 -25.828125 C 26.617188 -26.398438 26.019531 -26.6875 25.21875 -26.6875 Z M 18.734375 -26.6875 "/></g></g></g><g fill="#ff914d" fill-opacity="1"><g transform="translate(617.641358, 91.287072)"><g/></g></g><g fill="#ff914d" fill-opacity="1"><g transform="translate(661.758618, 91.287072)"><g><path d="M 28.1875 -40.796875 L 35.609375 -40.796875 C 35.921875 -40.796875 36.1875 -40.679688 36.40625 -40.453125 C 36.632812 -40.234375 36.75 -40.007812 36.75 -39.78125 C 36.75 -39.5625 36.710938 -39.363281 36.640625 -39.1875 L 18.0625 2.796875 C 17.644531 3.835938 16.882812 4.359375 15.78125 4.359375 L 8.515625 4.359375 C 8.203125 4.359375 7.929688 4.242188 7.703125 4.015625 C 7.484375 3.796875 7.375 3.570312 7.375 3.34375 C 7.375 3.125 7.40625 2.925781 7.46875 2.75 L 25.90625 -39.234375 C 26.28125 -40.273438 27.039062 -40.796875 28.1875 -40.796875 Z M 28.1875 -40.796875 "/></g></g></g><g fill="#ff914d" fill-opacity="1"><g transform="translate(705.875879, 91.287072)"><g><path d="M 35.609375 -19.25 L 35.609375 -17.078125 C 35.609375 -16.285156 35.109375 -15.554688 34.109375 -14.890625 L 12.296875 -0.875 C 12.128906 -0.78125 11.914062 -0.734375 11.65625 -0.734375 C 11.394531 -0.734375 11.160156 -0.832031 10.953125 -1.03125 C 10.742188 -1.238281 10.640625 -1.5 10.640625 -1.8125 L 10.640625 -10.21875 C 10.640625 -10.84375 10.773438 -11.273438 11.046875 -11.515625 C 11.328125 -11.765625 11.503906 -11.90625 11.578125 -11.9375 C 12.023438 -12.28125 12.265625 -12.453125 12.296875 -12.453125 L 21.390625 -18.171875 L 12.296875 -23.875 C 12.160156 -23.875 11.910156 -24.035156 11.546875 -24.359375 C 11.179688 -24.691406 10.96875 -24.910156 10.90625 -25.015625 C 10.726562 -25.460938 10.640625 -25.828125 10.640625 -26.109375 L 10.640625 -34.515625 C 10.640625 -34.828125 10.742188 -35.085938 10.953125 -35.296875 C 11.160156 -35.503906 11.394531 -35.609375 11.65625 -35.609375 C 11.914062 -35.609375 12.128906 -35.554688 12.296875 -35.453125 L 34.109375 -21.4375 C 35.109375 -20.78125 35.609375 -20.050781 35.609375 -19.25 Z M 35.609375 -19.25 "/></g></g></g></svg>